# xmcd
#
# Track frame offsets: 
#        150
#        15734
#        37383
#        53017
#        63496
#        83917
#        102630
#        115467
#        122160
#        131768
#        144370
#        154128
#        170901
#        177848
#
# Disc length: 2501 seconds
#
# Revision: 0
# Processed by: cddbd v1.5.2PL0 Copyright (c) Steve Scherf et al.
# Submitted via: ExactAudioCopy v0.99pb4
#
DISCID=d009c30e
DTITLE=The Internet - Purple Naked Ladies
DYEAR=2012
DGENRE=Hip-Hop
TTITLE0=Violet Nude Women
TTITLE1=They Say/Shangrila
TTITLE2=She DGAF
TTITLE3=Cunt
TTITLE4=Cocaine/Tevie
TTITLE5=Ode to a Dream
TTITLE6=Gurl
TTITLE7=Love Song -1
TTITLE8=Lincoln
TTITLE9=Web of Me
TTITLE10=She Knows
TTITLE11=Fastlane
TTITLE12=Visions
TTITLE13=The Garden
EXTD=
EXTT0=
EXTT1=
EXTT2=
EXTT3=
EXTT4=
EXTT5=
EXTT6=
EXTT7=
EXTT8=
EXTT9=
EXTT10=
EXTT11=
EXTT12=
EXTT13=
PLAYORDER=
